<svg width="32" height="32" fill="none" xmlns="http://www.w3.org/2000/svg"><path d="M15.265 7.916a.936.936 0 011.514 0l7.525 10.353c.198.272.236.63.099.938l-3.174 7.146h.396a.94.94 0 01.938.941v3.765a.94.94 0 01-.938.941h-11.25a.94.94 0 01-.938-.941v-3.765c0-.52.42-.941.938-.941h.44l-3.174-7.146a.945.945 0 01.1-.938l7.524-10.353zm5.422 20.32h-9.375v1.882h9.376v-1.883zm-3.75-16.909v5.776a2.827 2.827 0 011.875 2.662A2.821 2.821 0 0116 22.588a2.821 2.821 0 01-2.813-2.823c0-1.227.784-2.273 1.876-2.662v-5.716l-5.488 7.551 3.293 7.415h6.308l3.293-7.415-5.532-7.61zM16 18.824a.94.94 0 000 1.882.94.94 0 000-1.882zM17.875 0a.94.94 0 01.938.941v.941h7.723A2.818 2.818 0 0129.187 0 2.821 2.821 0 0132 2.824a2.821 2.821 0 01-2.813 2.823 2.818 2.818 0 01-2.65-1.882h-3.51a14.102 14.102 0 016.77 9.494A2.826 2.826 0 0131.937 16a2.821 2.821 0 01-2.812 2.824A2.821 2.821 0 0126.312 16c0-1.125.66-2.098 1.61-2.551a12.199 12.199 0 00-9.11-9.357v.614a.94.94 0 01-.937.941h-3.75a.94.94 0 01-.938-.941v-.614a12.192 12.192 0 00-9.115 9.385A2.827 2.827 0 015.625 16a2.821 2.821 0 01-2.813 2.824 2.825 2.825 0 01-.607-5.58 14.132 14.132 0 016.769-9.48h-3.51a2.818 2.818 0 01-2.652 1.883A2.821 2.821 0 010 2.824 2.821 2.821 0 012.813 0c1.222 0 2.264.787 2.65 1.882h7.724v-.94c0-.52.42-.942.938-.942h3.75zM2.812 15.059a.94.94 0 000 1.882.94.94 0 000-1.882zm26.313 0a.94.94 0 000 1.882.94.94 0 000-1.882zm.063-13.177a.94.94 0 000 1.883.94.94 0 000-1.883zm-26.375 0a.94.94 0 000 1.883.94.94 0 000-1.883zm14.124 0h-1.875v1.883h1.876V1.882z" fill="#fff"/></svg>